HIERARCHY
ROOT root
{
	OFFSET 0.000000 0.000000 0.000000
	CHANNELS 6 Xposition Yposition Zposition Zrotation Yrotation Xrotation
	JOINT lhip
	{
		OFFSET 0.058581 -0.082280 -0.017664
		CHANNELS 3 Zrotation Yrotation Xrotation
		JOINT lknee
		{
			OFFSET 0.043451 -0.386469 0.008037
			CHANNELS 3 Zrotation Yrotation Xrotation
			JOINT lankle
			{
				OFFSET -0.014790 -0.426874 -0.037428
				CHANNELS 3 Zrotation Yrotation Xrotation
				JOINT ltoe
				{
					OFFSET 0.041054 -0.060286 0.122042
					CHANNELS 3 Zrotation Yrotation Xrotation
					End Site
					{
						OFFSET 0.000000 0.000000 0.000000
					}
				}
			}
		}
	}
	JOINT rhip
	{
		OFFSET -0.060310 -0.090513 -0.013543
		CHANNELS 3 Zrotation Yrotation Xrotation
		JOINT rknee
		{
			OFFSET -0.043257 -0.383688 -0.004843
			CHANNELS 3 Zrotation Yrotation Xrotation
			JOINT rankle
			{
				OFFSET 0.019056 -0.420046 -0.034562
				CHANNELS 3 Zrotation Yrotation Xrotation
				JOINT rtoe
				{
					OFFSET -0.034840 -0.062106 0.130323
					CHANNELS 3 Zrotation Yrotation Xrotation
					End Site
					{
						OFFSET 0.000000 0.000000 0.000000
					}
				}
			}
		}
	}
	JOINT lowerback
	{
		OFFSET 0.004439 0.124404 -0.038385
		CHANNELS 3 Zrotation Yrotation Xrotation
		JOINT upperback
		{
			OFFSET 0.004488 0.137956 0.026820
			CHANNELS 3 Zrotation Yrotation Xrotation
			JOINT chest
			{
				OFFSET -0.002265 0.056032 0.002855
				CHANNELS 3 Zrotation Yrotation Xrotation
				JOINT lowerneck
				{
					OFFSET -0.013390 0.211636 -0.033468
					CHANNELS 3 Zrotation Yrotation Xrotation
					JOINT upperneck
					{
						OFFSET 0.010113 0.088937 0.050410
						CHANNELS 3 Zrotation Yrotation Xrotation
						End Site
						{
							OFFSET 0.000000 0.000000 0.000000
						}
					}
				}
				JOINT lclavicle
				{
					OFFSET 0.071702 0.114000 -0.018898
					CHANNELS 3 Zrotation Yrotation Xrotation
					JOINT lshoulder
					{
						OFFSET 0.122921 0.045205 -0.019046
						CHANNELS 3 Zrotation Yrotation Xrotation
						JOINT lelbow
						{
							OFFSET 0.255332 -0.015649 -0.022946
							CHANNELS 3 Zrotation Yrotation Xrotation
							JOINT lwrist
							{
								OFFSET 0.265709 0.012698 -0.007375
								CHANNELS 3 Zrotation Yrotation Xrotation
								End Site
								{
									OFFSET 0.000000 0.000000 0.000000
								}
							}
						}
					}
				}
				JOINT rclavicle
				{
					OFFSET -0.082954 0.112472 -0.023707
					CHANNELS 3 Zrotation Yrotation Xrotation
					JOINT rshoulder
					{
						OFFSET -0.113228 0.046853 -0.008472
						CHANNELS 3 Zrotation Yrotation Xrotation
						JOINT relbow
						{
							OFFSET -0.260127 -0.014369 -0.031269
							CHANNELS 3 Zrotation Yrotation Xrotation
							JOINT rwrist
							{
								OFFSET -0.269108 0.006794 -0.006027
								CHANNELS 3 Zrotation Yrotation Xrotation
								End Site
								{
									OFFSET 0.000000 0.000000 0.000000
								}
							}
						}
					}
				}
			}
		}
	}
}
MOTION
Frames: 10
Frame Time: 0.033333
-0.168607 0.712224 0.914489 -86.524642 2.320007 83.352684 5.313227 -1.179225 -36.037223 -9.024317 -0.329332 43.735478 4.371124 8.043361 -10.209201 0.000000 -0.000000 0.000000 0.456737 -4.813057 -33.496553 -1.015073 -6.493726 46.168820 -0.830060 -5.423089 -10.674168 0.000000 -0.000000 0.000000 1.603602 1.800423 43.453588 -2.134634 0.273339 -12.713520 2.259868 0.675115 10.451654 -5.054734 -5.739236 -3.928026 9.363625 -4.205284 -14.216968 -8.627762 15.792099 -6.619690 -28.846183 4.579889 -13.521994 32.596697 -53.456415 -37.107084 5.912700 -18.431545 -23.313980 8.144687 -5.650758 0.451778 42.639940 -9.181367 -2.085794 -6.190987 38.855174 -7.036099 -6.162477 10.189642 -9.162340 
-0.186819 0.717779 0.846814 -88.629021 3.010078 85.093803 10.518160 -1.088793 -49.548841 -10.138667 6.893356 63.414437 5.689105 9.891362 -16.418104 0.000000 -0.000000 0.000000 0.079865 2.194706 -44.762474 -2.257844 -7.490686 62.998193 -3.592672 -11.937793 -18.927956 0.000000 -0.000000 0.000000 -0.517217 1.656579 47.200153 -1.345142 2.747197 -14.552989 2.197018 1.092772 10.603173 -4.558239 -6.168947 -13.246700 8.729098 -3.646144 -12.846174 -14.435573 17.923093 -5.114398 -36.868952 7.170245 -14.810442 26.195553 -42.721736 -38.385955 4.080163 -14.892392 -22.384711 14.773688 -6.147741 1.025522 50.011364 -8.126637 1.336567 -9.770157 28.131525 -11.578763 -4.632081 6.989697 0.009366 
-0.201177 0.718932 0.807030 -89.241239 2.711229 85.093540 13.023767 -0.404369 -54.577933 -8.541745 11.382551 74.024805 4.570302 7.454360 -22.877792 0.000000 -0.000000 0.000000 -1.783345 5.531034 -50.463369 -5.178095 -8.769961 74.692385 -3.039166 -11.858603 -23.965057 0.000000 -0.000000 0.000000 -0.956667 2.451474 53.355005 -1.339568 2.521575 -12.565773 2.051977 0.723879 6.756166 -4.095729 -3.569548 -20.113824 8.529915 -4.195642 -14.660733 -20.591783 10.759948 -2.610027 -41.817718 8.712766 -14.244611 19.437310 -29.668349 -35.561577 2.790154 -13.292712 -15.572408 21.091756 0.259951 3.198565 55.554378 -5.990597 2.916273 -12.071205 22.521078 -13.360741 -7.078995 4.683523 5.851695 
-0.210354 0.718905 0.776092 -88.674021 2.406279 87.216317 13.010300 0.941251 -60.313200 -7.788557 12.282833 80.679349 5.934769 6.879764 -27.148628 0.000000 -0.000000 0.000000 -3.537576 5.230072 -55.672212 -5.738254 -8.993215 81.036014 -4.131314 -12.517148 -28.292865 0.000000 -0.000000 0.000000 -0.791481 2.224015 56.357428 -1.189497 1.391640 -13.744817 2.070467 0.023252 5.961764 -3.702042 -2.162282 -23.797795 8.120375 -3.814617 -15.916422 -25.307074 0.533877 0.605495 -44.860996 5.894086 -11.348557 14.040029 -16.569890 -30.078625 4.544961 -13.462762 -10.497946 24.346057 7.931623 5.681658 56.214475 -2.403198 6.131703 -12.783608 26.033040 -6.958990 -6.380110 6.207430 6.846658 
-0.218963 0.715527 0.756191 -87.567263 1.702726 88.249852 13.850865 0.315857 -63.877842 -7.507180 14.932569 85.273617 5.885205 6.350604 -29.932998 0.000000 -0.000000 0.000000 -6.886858 2.977624 -58.456053 -5.989104 -10.745816 86.154724 -3.288024 -10.226280 -31.277575 0.000000 -0.000000 0.000000 -0.457097 1.147295 59.720550 -1.220298 0.055137 -13.798116 1.665367 -0.374956 3.983291 -2.634454 -1.653855 -28.353016 7.811494 -4.334375 -14.854101 -29.818217 -8.134198 2.750532 -44.668163 0.854816 -7.141086 14.819788 -13.810211 -29.159041 6.171387 -13.107700 -8.475296 26.032176 14.757449 6.874945 50.809913 4.137856 7.926141 -11.936174 28.893257 -2.577767 -5.800185 6.807107 6.871066 
-0.225672 0.713419 0.741943 -88.288534 1.992039 89.341431 16.029771 1.152351 -66.231141 -7.414314 17.341227 88.148399 5.696208 5.958718 -31.331439 0.000000 -0.000000 0.000000 -8.814725 2.937340 -61.090089 -5.848988 -12.888836 89.477223 -2.569321 -9.144555 -32.247471 0.000000 -0.000000 0.000000 -0.435025 1.051190 61.880624 -1.543142 -0.165380 -14.213149 1.690310 -0.096591 2.654887 -2.133751 -0.683501 -32.784614 7.339122 -5.495395 -13.787998 -29.942716 -15.138958 2.754557 -43.622466 -5.251710 -3.149173 16.585006 -17.733668 -27.244397 7.173599 -12.764037 -8.881674 25.729690 22.056339 7.626258 43.210611 12.646000 6.195392 -13.356977 25.271837 -4.869961 -7.216256 6.635609 7.284793 
-0.232820 0.712005 0.734144 -89.485163 1.921106 89.345065 15.939846 1.562604 -66.552424 -6.728114 17.280087 90.321271 5.948834 6.904272 -33.150210 0.000000 -0.000000 0.000000 -8.401110 3.422628 -61.877868 -5.096577 -11.980010 91.110671 -2.159027 -9.886575 -33.229764 0.000000 -0.000000 0.000000 -0.822916 1.401196 62.745589 -2.020259 -0.027488 -14.308572 1.520989 0.595571 2.461970 -1.960770 -0.178154 -35.741363 6.979643 -6.773703 -13.492293 -27.609359 -22.049203 0.704979 -38.352166 -12.321415 -0.091888 15.752537 -19.514149 -23.142657 7.380381 -13.843019 -7.466552 23.475402 28.113199 6.126522 34.701757 19.424227 2.650194 -15.556716 21.115704 -10.089464 -8.234624 6.374920 6.630180 
-0.241031 0.710816 0.731033 -89.810906 1.001083 88.786200 14.585218 0.164471 -65.972531 -6.123924 16.669284 91.581152 5.675626 8.540445 -34.213822 0.000000 -0.000000 0.000000 -8.428917 4.141033 -61.323936 -4.544144 -10.275573 91.867164 -1.722147 -11.399187 -34.436556 0.000000 -0.000000 0.000000 -1.051958 1.738580 62.448412 -2.192543 -0.518293 -14.619799 1.198553 0.293412 3.221748 -1.781439 1.208458 -37.534773 6.626775 -7.905295 -13.589702 -23.426650 -27.843843 -2.550596 -31.036677 -19.780755 0.556923 14.526781 -18.487818 -22.811775 7.813194 -14.818924 -5.344621 20.094867 31.338031 2.419931 25.435263 24.365842 -0.866552 -17.345731 21.869979 -14.881728 -8.762916 5.855557 3.058247 
-0.249925 0.710449 0.734081 -89.352992 0.388327 88.104220 13.556716 -1.153429 -64.514792 -6.625542 16.271831 91.328237 5.507671 9.882389 -34.332983 0.000000 -0.000000 0.000000 -7.991947 4.415646 -59.600124 -3.570373 -8.958999 91.331062 -1.195636 -13.651889 -34.742123 0.000000 -0.000000 0.000000 -1.633019 1.520229 60.749521 -1.625149 -1.533131 -13.518851 1.218550 0.238583 3.476990 -1.956583 1.791888 -38.871835 6.939119 -8.628922 -14.124188 -18.709467 -32.567779 -5.727361 -20.794363 -24.583644 -2.274007 14.076952 -19.646903 -24.545948 7.561379 -15.558769 -4.875046 16.233870 33.940026 -0.753993 15.757239 26.896436 -5.477228 -20.653106 26.932672 -18.371911 -7.282823 6.331697 0.617675 
-0.261477 0.712105 0.741881 -88.910592 0.419305 87.665960 12.910295 -1.229357 -62.236930 -7.799621 15.500051 90.020532 5.156967 10.467316 -34.590604 0.000000 -0.000000 0.000000 -6.727174 5.009403 -57.073648 -2.931575 -7.885101 89.713403 -0.781733 -15.639695 -34.755266 0.000000 -0.000000 0.000000 -1.982662 0.864425 60.277195 -1.167859 -2.400782 -15.916433 1.082263 0.176072 4.137564 -2.139649 2.325528 -39.433272 6.862209 -8.537027 -13.744962 -12.861161 -34.239772 -9.894910 -11.113075 -27.479299 -6.047075 13.248002 -22.053548 -25.457403 7.182120 -16.610845 -4.534433 10.695799 34.614604 -4.805397 9.186788 28.531516 -8.089925 -24.180997 31.805069 -23.251836 -8.620171 7.208821 -1.949367 
